<mxfile host="app.diagrams.net" modified="2021-04-23T03:56:08.812Z" agent="5.0 (Windows NT 10.0; Win64; x64) AppleWebKit/537.36 (KHTML, like Gecko) Chrome/88.0.4324.190 Safari/537.36" etag="dCKbrKlC1qDZ3CkjOQLm" version="13.8.6" type="github">
  <diagram id="a5nCqFPPOgN34_i7aiQj" name="Page-1">
    <mxGraphModel dx="2249" dy="1941" grid="1" gridSize="10" guides="1" tooltips="1" connect="1" arrows="1" fold="1" page="1" pageScale="1" pageWidth="827" pageHeight="1169" background="#ffffff" math="0" shadow="0">
      <root>
        <mxCell id="0" />
        <mxCell id="1" parent="0" />
        <mxCell id="eJD20ihLPFX-GkCaP18X-9" value="&lt;h1&gt;&lt;font style=&quot;font-size: 15px&quot;&gt;有回源时&lt;/font&gt;&lt;/h1&gt;" style="text;html=1;resizable=0;autosize=1;align=center;verticalAlign=middle;points=[];fillColor=none;strokeColor=none;rounded=0;fontColor=#528228;" vertex="1" parent="1">
          <mxGeometry x="66" y="-230" width="80" height="50" as="geometry" />
        </mxCell>
        <mxCell id="eJD20ihLPFX-GkCaP18X-10" value="&lt;h1&gt;&lt;font style=&quot;font-size: 15px&quot;&gt;无回源时&lt;/font&gt;&lt;/h1&gt;" style="text;html=1;resizable=0;autosize=1;align=center;verticalAlign=middle;points=[];fillColor=none;strokeColor=none;rounded=0;fontColor=#528228;" vertex="1" parent="1">
          <mxGeometry x="605" y="-230" width="80" height="50" as="geometry" />
        </mxCell>
        <mxCell id="eJD20ihLPFX-GkCaP18X-12" value="" style="pointerEvents=1;shadow=0;dashed=0;html=1;strokeColor=none;labelPosition=center;verticalLabelPosition=bottom;verticalAlign=top;align=center;fillColor=#515151;shape=mxgraph.mscae.system_center.secondary_site" vertex="1" parent="1">
          <mxGeometry x="617.5" y="-70" width="92.5" height="100" as="geometry" />
        </mxCell>
        <mxCell id="eJD20ihLPFX-GkCaP18X-15" value="" style="endArrow=classic;html=1;fontColor=#528228;" edge="1" parent="1">
          <mxGeometry width="50" height="50" relative="1" as="geometry">
            <mxPoint x="654.5" y="-120" as="sourcePoint" />
            <mxPoint x="654.5" y="-80" as="targetPoint" />
          </mxGeometry>
        </mxCell>
        <mxCell id="eJD20ihLPFX-GkCaP18X-20" value="" style="pointerEvents=1;shadow=0;dashed=0;html=1;strokeColor=none;labelPosition=center;verticalLabelPosition=bottom;verticalAlign=top;align=center;fillColor=#515151;shape=mxgraph.mscae.enterprise.database_server;fontColor=#528228;" vertex="1" parent="1">
          <mxGeometry x="172.5" y="390" width="87" height="90" as="geometry" />
        </mxCell>
        <mxCell id="eJD20ihLPFX-GkCaP18X-29" value="pageA（moduleA）" style="shape=process;whiteSpace=wrap;html=1;backgroundOutline=1;fontColor=#528228;" vertex="1" parent="1">
          <mxGeometry x="677.75" y="280" width="120" height="60" as="geometry" />
        </mxCell>
        <mxCell id="eJD20ihLPFX-GkCaP18X-37" value="发版几分钟内服务器没有moduleA" style="ellipse;whiteSpace=wrap;html=1;aspect=fixed;fillColor=#FFFFFF;fontColor=#528228;" vertex="1" parent="1">
          <mxGeometry x="508.75" y="385" width="85" height="85" as="geometry" />
        </mxCell>
        <mxCell id="eJD20ihLPFX-GkCaP18X-40" value="pageA（moduleA）" style="shape=process;whiteSpace=wrap;html=1;backgroundOutline=1;fontColor=#528228;" vertex="1" parent="1">
          <mxGeometry x="518.75" y="280" width="120" height="60" as="geometry" />
        </mxCell>
        <mxCell id="eJD20ihLPFX-GkCaP18X-43" value="在发版中？" style="rhombus;whiteSpace=wrap;html=1;fillColor=#FFFFFF;fontColor=#528228;" vertex="1" parent="1">
          <mxGeometry x="618.75" y="110" width="80" height="80" as="geometry" />
        </mxCell>
        <mxCell id="eJD20ihLPFX-GkCaP18X-46" value="" style="edgeStyle=segmentEdgeStyle;endArrow=classic;html=1;fontColor=#528228;" edge="1" parent="1">
          <mxGeometry width="50" height="50" relative="1" as="geometry">
            <mxPoint x="696.25" y="150" as="sourcePoint" />
            <mxPoint x="756.25" y="390" as="targetPoint" />
            <Array as="points">
              <mxPoint x="756.25" y="150" />
            </Array>
          </mxGeometry>
        </mxCell>
        <mxCell id="eJD20ihLPFX-GkCaP18X-49" value="" style="edgeStyle=segmentEdgeStyle;endArrow=classic;html=1;fontColor=#528228;entryX=0.321;entryY=0.02;entryDx=0;entryDy=0;entryPerimeter=0;" edge="1" parent="1">
          <mxGeometry width="50" height="50" relative="1" as="geometry">
            <mxPoint x="616.25" y="150" as="sourcePoint" />
            <mxPoint x="559.77" y="385" as="targetPoint" />
          </mxGeometry>
        </mxCell>
        <mxCell id="eJD20ihLPFX-GkCaP18X-51" value="是" style="text;html=1;resizable=0;autosize=1;align=center;verticalAlign=middle;points=[];fillColor=none;strokeColor=none;rounded=0;fontColor=#528228;" vertex="1" parent="1">
          <mxGeometry x="576.25" y="130" width="30" height="20" as="geometry" />
        </mxCell>
        <mxCell id="eJD20ihLPFX-GkCaP18X-53" value="否" style="text;html=1;resizable=0;autosize=1;align=center;verticalAlign=middle;points=[];fillColor=none;strokeColor=none;rounded=0;fontColor=#528228;" vertex="1" parent="1">
          <mxGeometry x="701.75" y="130" width="30" height="20" as="geometry" />
        </mxCell>
        <mxCell id="eJD20ihLPFX-GkCaP18X-59" value="" style="edgeStyle=elbowEdgeStyle;elbow=horizontal;endArrow=classic;html=1;fontColor=#528228;exitX=0.935;exitY=0.212;exitDx=0;exitDy=0;exitPerimeter=0;" edge="1" parent="1" source="eJD20ihLPFX-GkCaP18X-37">
          <mxGeometry width="50" height="50" relative="1" as="geometry">
            <mxPoint x="586.25" y="380" as="sourcePoint" />
            <mxPoint x="626.25" y="159" as="targetPoint" />
            <Array as="points">
              <mxPoint x="586.25" y="159" />
            </Array>
          </mxGeometry>
        </mxCell>
        <mxCell id="eJD20ihLPFX-GkCaP18X-61" value="" style="shape=image;html=1;verticalAlign=top;verticalLabelPosition=bottom;labelBackgroundColor=#ffffff;imageAspect=0;aspect=fixed;image=https://cdn4.iconfinder.com/data/icons/core-ui-outlined/32/outlined_close-128.png;fillColor=#FFFFFF;fontColor=#528228;" vertex="1" parent="1">
          <mxGeometry x="576.25" y="250" width="30" height="30" as="geometry" />
        </mxCell>
        <mxCell id="eJD20ihLPFX-GkCaP18X-64" value="" style="edgeStyle=elbowEdgeStyle;elbow=horizontal;endArrow=classic;html=1;fontColor=#528228;exitX=0.229;exitY=0;exitDx=0;exitDy=0;exitPerimeter=0;entryX=0.894;entryY=0.613;entryDx=0;entryDy=0;entryPerimeter=0;" edge="1" parent="1" target="eJD20ihLPFX-GkCaP18X-43">
          <mxGeometry width="50" height="50" relative="1" as="geometry">
            <mxPoint x="728.6062499999998" y="390" as="sourcePoint" />
            <mxPoint x="696.25" y="160" as="targetPoint" />
            <Array as="points">
              <mxPoint x="726.25" y="290" />
            </Array>
          </mxGeometry>
        </mxCell>
        <mxCell id="eJD20ihLPFX-GkCaP18X-68" value="" style="ellipse;shape=cloud;whiteSpace=wrap;html=1;fillColor=#FFFFFF;fontColor=#528228;" vertex="1" parent="1">
          <mxGeometry x="557.75" y="170" width="98.5" height="70" as="geometry" />
        </mxCell>
        <mxCell id="eJD20ihLPFX-GkCaP18X-69" value="" style="shape=image;html=1;verticalAlign=top;verticalLabelPosition=bottom;labelBackgroundColor=#ffffff;imageAspect=0;aspect=fixed;image=https://cdn4.iconfinder.com/data/icons/smileys-for-fun/128/smiley__21-128.png" vertex="1" parent="1">
          <mxGeometry x="586.25" y="184.63" width="41.5" height="41.5" as="geometry" />
        </mxCell>
        <mxCell id="eJD20ihLPFX-GkCaP18X-73" value="" style="ellipse;shape=cloud;whiteSpace=wrap;html=1;fillColor=#FFFFFF;fontColor=#528228;" vertex="1" parent="1">
          <mxGeometry x="666.75" y="170" width="90" height="69.25" as="geometry" />
        </mxCell>
        <mxCell id="eJD20ihLPFX-GkCaP18X-76" value="" style="shape=image;html=1;verticalAlign=top;verticalLabelPosition=bottom;labelBackgroundColor=#ffffff;imageAspect=0;aspect=fixed;image=https://cdn4.iconfinder.com/data/icons/smileys-for-fun/128/smiley__10-128.png" vertex="1" parent="1">
          <mxGeometry x="695.38" y="183.39" width="42.74" height="42.74" as="geometry" />
        </mxCell>
        <mxCell id="eJD20ihLPFX-GkCaP18X-77" value="Actor" style="shape=umlActor;verticalLabelPosition=bottom;verticalAlign=top;html=1;" vertex="1" parent="1">
          <mxGeometry x="91" y="-190" width="30" height="50" as="geometry" />
        </mxCell>
        <mxCell id="eJD20ihLPFX-GkCaP18X-78" value="在发版中？" style="rhombus;whiteSpace=wrap;html=1;fillColor=#FFFFFF;fontColor=#528228;" vertex="1" parent="1">
          <mxGeometry x="80" y="110" width="80" height="80" as="geometry" />
        </mxCell>
        <mxCell id="eJD20ihLPFX-GkCaP18X-79" value="发版几分钟内服务器没有moduleA" style="ellipse;whiteSpace=wrap;html=1;aspect=fixed;fillColor=#FFFFFF;fontColor=#528228;" vertex="1" parent="1">
          <mxGeometry x="-19.5" y="387.5" width="92.5" height="92.5" as="geometry" />
        </mxCell>
        <mxCell id="eJD20ihLPFX-GkCaP18X-83" value="pageA（moduleA）" style="shape=process;whiteSpace=wrap;html=1;backgroundOutline=1;fontColor=#528228;" vertex="1" parent="1">
          <mxGeometry x="139.5" y="281.98" width="120" height="60" as="geometry" />
        </mxCell>
        <mxCell id="eJD20ihLPFX-GkCaP18X-84" value="pageA（moduleA）" style="shape=process;whiteSpace=wrap;html=1;backgroundOutline=1;fontColor=#528228;" vertex="1" parent="1">
          <mxGeometry x="-19.5" y="281.98" width="120" height="60" as="geometry" />
        </mxCell>
        <mxCell id="eJD20ihLPFX-GkCaP18X-85" value="" style="edgeStyle=segmentEdgeStyle;endArrow=classic;html=1;fontColor=#528228;" edge="1" parent="1">
          <mxGeometry width="50" height="50" relative="1" as="geometry">
            <mxPoint x="158" y="151.98" as="sourcePoint" />
            <mxPoint x="218" y="391.98" as="targetPoint" />
            <Array as="points">
              <mxPoint x="218" y="151.98" />
            </Array>
          </mxGeometry>
        </mxCell>
        <mxCell id="eJD20ihLPFX-GkCaP18X-86" value="" style="edgeStyle=segmentEdgeStyle;endArrow=classic;html=1;fontColor=#528228;entryX=0.321;entryY=0.02;entryDx=0;entryDy=0;entryPerimeter=0;" edge="1" parent="1">
          <mxGeometry width="50" height="50" relative="1" as="geometry">
            <mxPoint x="78" y="151.98" as="sourcePoint" />
            <mxPoint x="21.519999999999982" y="386.98" as="targetPoint" />
          </mxGeometry>
        </mxCell>
        <mxCell id="eJD20ihLPFX-GkCaP18X-87" value="是" style="text;html=1;resizable=0;autosize=1;align=center;verticalAlign=middle;points=[];fillColor=none;strokeColor=none;rounded=0;fontColor=#528228;" vertex="1" parent="1">
          <mxGeometry x="38" y="131.98000000000002" width="30" height="20" as="geometry" />
        </mxCell>
        <mxCell id="eJD20ihLPFX-GkCaP18X-88" value="否" style="text;html=1;resizable=0;autosize=1;align=center;verticalAlign=middle;points=[];fillColor=none;strokeColor=none;rounded=0;fontColor=#528228;" vertex="1" parent="1">
          <mxGeometry x="163.5" y="131.98000000000002" width="30" height="20" as="geometry" />
        </mxCell>
        <mxCell id="eJD20ihLPFX-GkCaP18X-89" value="" style="edgeStyle=elbowEdgeStyle;elbow=horizontal;endArrow=classic;html=1;fontColor=#528228;" edge="1" parent="1">
          <mxGeometry width="50" height="50" relative="1" as="geometry">
            <mxPoint x="48" y="390" as="sourcePoint" />
            <mxPoint x="88" y="160.98" as="targetPoint" />
            <Array as="points">
              <mxPoint x="48" y="160.98" />
            </Array>
          </mxGeometry>
        </mxCell>
        <mxCell id="eJD20ihLPFX-GkCaP18X-91" value="" style="edgeStyle=elbowEdgeStyle;elbow=horizontal;endArrow=classic;html=1;fontColor=#528228;entryX=0.894;entryY=0.613;entryDx=0;entryDy=0;entryPerimeter=0;" edge="1" parent="1">
          <mxGeometry width="50" height="50" relative="1" as="geometry">
            <mxPoint x="188" y="390" as="sourcePoint" />
            <mxPoint x="152.01999999999998" y="161.01999999999995" as="targetPoint" />
            <Array as="points">
              <mxPoint x="188" y="291.98" />
            </Array>
          </mxGeometry>
        </mxCell>
        <mxCell id="eJD20ihLPFX-GkCaP18X-92" value="" style="ellipse;shape=cloud;whiteSpace=wrap;html=1;fillColor=#FFFFFF;fontColor=#528228;" vertex="1" parent="1">
          <mxGeometry x="19.5" y="171.98" width="98.5" height="70" as="geometry" />
        </mxCell>
        <mxCell id="eJD20ihLPFX-GkCaP18X-94" value="" style="ellipse;shape=cloud;whiteSpace=wrap;html=1;fillColor=#FFFFFF;fontColor=#528228;" vertex="1" parent="1">
          <mxGeometry x="128.5" y="171.98" width="90" height="69.25" as="geometry" />
        </mxCell>
        <mxCell id="eJD20ihLPFX-GkCaP18X-95" value="" style="shape=image;html=1;verticalAlign=top;verticalLabelPosition=bottom;labelBackgroundColor=#ffffff;imageAspect=0;aspect=fixed;image=https://cdn4.iconfinder.com/data/icons/smileys-for-fun/128/smiley__10-128.png" vertex="1" parent="1">
          <mxGeometry x="157.13" y="185.36999999999998" width="42.74" height="42.74" as="geometry" />
        </mxCell>
        <mxCell id="eJD20ihLPFX-GkCaP18X-96" value="" style="shape=image;html=1;verticalAlign=top;verticalLabelPosition=bottom;labelBackgroundColor=#ffffff;imageAspect=0;aspect=fixed;image=https://cdn4.iconfinder.com/data/icons/smileys-for-fun/128/smiley__10-128.png" vertex="1" parent="1">
          <mxGeometry x="48.25999999999999" y="185.60999999999999" width="42.74" height="42.74" as="geometry" />
        </mxCell>
        <mxCell id="eJD20ihLPFX-GkCaP18X-97" value="" style="pointerEvents=1;shadow=0;dashed=0;html=1;strokeColor=none;labelPosition=center;verticalLabelPosition=bottom;verticalAlign=top;align=center;fillColor=#515151;shape=mxgraph.mscae.enterprise.database_server;fontColor=#528228;" vertex="1" parent="1">
          <mxGeometry x="710" y="390" width="87" height="90" as="geometry" />
        </mxCell>
        <mxCell id="eJD20ihLPFX-GkCaP18X-98" value="" style="pointerEvents=1;shadow=0;dashed=0;html=1;strokeColor=none;labelPosition=center;verticalLabelPosition=bottom;verticalAlign=top;align=center;fillColor=#515151;shape=mxgraph.mscae.enterprise.database_server;fontColor=#528228;" vertex="1" parent="1">
          <mxGeometry y="560" width="87" height="90" as="geometry" />
        </mxCell>
        <mxCell id="eJD20ihLPFX-GkCaP18X-99" value="" style="shape=flexArrow;endArrow=classic;startArrow=classic;html=1;fontColor=#528228;entryX=0.5;entryY=1;entryDx=0;entryDy=0;entryPerimeter=0;startWidth=8;startSize=8.67;endWidth=8;endSize=8.67;" edge="1" parent="1">
          <mxGeometry width="50" height="50" relative="1" as="geometry">
            <mxPoint x="658.25" y="110" as="sourcePoint" />
            <mxPoint x="658.25" y="30" as="targetPoint" />
          </mxGeometry>
        </mxCell>
        <mxCell id="eJD20ihLPFX-GkCaP18X-100" value="" style="pointerEvents=1;shadow=0;dashed=0;html=1;strokeColor=none;labelPosition=center;verticalLabelPosition=bottom;verticalAlign=top;align=center;fillColor=#515151;shape=mxgraph.mscae.system_center.secondary_site" vertex="1" parent="1">
          <mxGeometry x="80" y="-70" width="92.5" height="100" as="geometry" />
        </mxCell>
        <mxCell id="eJD20ihLPFX-GkCaP18X-101" value="Actor" style="shape=umlActor;verticalLabelPosition=bottom;verticalAlign=top;html=1;" vertex="1" parent="1">
          <mxGeometry x="638.75" y="-190" width="30" height="50" as="geometry" />
        </mxCell>
        <mxCell id="eJD20ihLPFX-GkCaP18X-102" value="" style="shape=flexArrow;endArrow=classic;startArrow=classic;html=1;fontColor=#528228;entryX=0.5;entryY=1;entryDx=0;entryDy=0;entryPerimeter=0;startWidth=8;startSize=8.67;endWidth=8;endSize=8.67;" edge="1" parent="1">
          <mxGeometry width="50" height="50" relative="1" as="geometry">
            <mxPoint x="118" y="110" as="sourcePoint" />
            <mxPoint x="118" y="30" as="targetPoint" />
          </mxGeometry>
        </mxCell>
        <mxCell id="eJD20ihLPFX-GkCaP18X-103" value="" style="endArrow=classic;html=1;fontColor=#528228;" edge="1" parent="1">
          <mxGeometry width="50" height="50" relative="1" as="geometry">
            <mxPoint x="105.75999999999999" y="-120" as="sourcePoint" />
            <mxPoint x="105.75999999999999" y="-80" as="targetPoint" />
          </mxGeometry>
        </mxCell>
        <mxCell id="eJD20ihLPFX-GkCaP18X-104" value="" style="shape=flexArrow;endArrow=classic;startArrow=classic;html=1;fontColor=#528228;entryX=0.5;entryY=1;entryDx=0;entryDy=0;entryPerimeter=0;startWidth=8;startSize=8.67;endWidth=8;endSize=8.67;" edge="1" parent="1">
          <mxGeometry width="50" height="50" relative="1" as="geometry">
            <mxPoint x="30" y="560" as="sourcePoint" />
            <mxPoint x="30" y="480" as="targetPoint" />
          </mxGeometry>
        </mxCell>
      </root>
    </mxGraphModel>
  </diagram>
</mxfile>
